<?xml version="1.0" encoding="UTF-8"?>
<svg version="1.1" xmlns="http://www.w3.org/2000/svg" width="500" height="500">
<path d="M0 0 C0.85796677 -0.00570007 1.71593353 -0.01140015 2.59989929 -0.01727295 C4.42669435 -0.02674716 6.25350668 -0.03326648 8.08032227 -0.03710938 C10.83707165 -0.04670224 13.59303886 -0.07765325 16.34960938 -0.109375 C32.25256688 -0.20656401 44.28675703 1.46671928 56.38671875 12.515625 C63.90132167 20.36149811 64.97311362 29.97423607 64.78125 40.375 C64.27399105 49.75450511 61.18348407 56.50689567 54.57421875 63.203125 C45.35568445 71.16880481 35.98911515 73.70036943 23.97265625 73.49609375 C23.01017975 73.49184891 22.04770325 73.48760406 21.05606079 73.48323059 C18.02014671 73.46660775 14.98492787 73.42898756 11.94921875 73.390625 C9.87500967 73.37555693 7.80079006 73.36187227 5.7265625 73.34960938 C0.67551855 73.31675819 -4.375014 73.26509176 -9.42578125 73.203125 C-9.44890629 63.83276562 -9.46669716 54.46241599 -9.47759342 45.09203434 C-9.4828219 40.74144041 -9.4899189 36.39086593 -9.5012207 32.0402832 C-9.51205084 27.84522242 -9.51805835 23.65018041 -9.52065849 19.45510674 C-9.52251251 17.85105532 -9.52613269 16.24700497 -9.53151131 14.6429615 C-9.53872344 12.40395985 -9.53977212 10.1650367 -9.53930664 7.92602539 C-9.54152725 6.64917374 -9.54374786 5.37232208 -9.54603577 4.05677795 C-9.30316121 -1.70666205 -4.64009902 0.02369761 0 0 Z M8.57421875 16.203125 C8.48152876 17.55407482 8.45674549 18.90979591 8.46069336 20.26391602 C8.46076889 21.12473282 8.46084442 21.98554962 8.46092224 22.87245178 C8.46608353 23.80786301 8.47124481 24.74327423 8.4765625 25.70703125 C8.47797745 26.66004623 8.4793924 27.61306122 8.48085022 28.59495544 C8.48646723 31.65187665 8.49902259 34.70872577 8.51171875 37.765625 C8.51673156 39.83268124 8.52129484 41.89973862 8.52539062 43.96679688 C8.53644219 49.04560088 8.5537182 54.1243507 8.57421875 59.203125 C11.5539549 59.28496923 14.53138707 59.34402264 17.51171875 59.390625 C18.34251953 59.41576172 19.17332031 59.44089844 20.02929688 59.46679688 C28.49437109 59.56561097 35.89536004 57.78510197 42.1328125 51.8515625 C46.80573616 46.50746011 47.12367383 41.00212587 46.91796875 34.13671875 C46.10055298 27.1608183 42.79889209 22.88187631 37.55078125 18.4296875 C31.7028171 14.8007137 25.91401961 14.92502019 19.26171875 15.015625 C18.34326172 15.01626953 17.42480469 15.01691406 16.47851562 15.01757812 C12.19568744 14.65839136 12.19568744 14.65839136 8.57421875 16.203125 Z " fill="#AF65D9" transform="translate(305.42578125,205.796875)"/>
<path d="M0 0 C0.85796677 -0.00570007 1.71593353 -0.01140015 2.59989929 -0.01727295 C4.42669435 -0.02674716 6.25350668 -0.03326648 8.08032227 -0.03710938 C10.83707165 -0.04670224 13.59303886 -0.07765325 16.34960938 -0.109375 C32.25256688 -0.20656401 44.28675703 1.46671928 56.38671875 12.515625 C63.90132167 20.36149811 64.97311362 29.97423607 64.78125 40.375 C64.27399105 49.75450511 61.18348407 56.50689567 54.57421875 63.203125 C45.35568445 71.16880481 35.98911515 73.70036943 23.97265625 73.49609375 C23.01017975 73.49184891 22.04770325 73.48760406 21.05606079 73.48323059 C18.02014671 73.46660775 14.98492787 73.42898756 11.94921875 73.390625 C9.87500967 73.37555693 7.80079006 73.36187227 5.7265625 73.34960938 C0.67551855 73.31675819 -4.375014 73.26509176 -9.42578125 73.203125 C-9.44890629 63.83276562 -9.46669716 54.46241599 -9.47759342 45.09203434 C-9.4828219 40.74144041 -9.4899189 36.39086593 -9.5012207 32.0402832 C-9.51205084 27.84522242 -9.51805835 23.65018041 -9.52065849 19.45510674 C-9.52251251 17.85105532 -9.52613269 16.24700497 -9.53151131 14.6429615 C-9.53872344 12.40395985 -9.53977212 10.1650367 -9.53930664 7.92602539 C-9.54152725 6.64917374 -9.54374786 5.37232208 -9.54603577 4.05677795 C-9.30316121 -1.70666205 -4.64009902 0.02369761 0 0 Z M8.57421875 16.203125 C8.48152876 17.55407482 8.45674549 18.90979591 8.46069336 20.26391602 C8.46076889 21.12473282 8.46084442 21.98554962 8.46092224 22.87245178 C8.46608353 23.80786301 8.47124481 24.74327423 8.4765625 25.70703125 C8.47797745 26.66004623 8.4793924 27.61306122 8.48085022 28.59495544 C8.48646723 31.65187665 8.49902259 34.70872577 8.51171875 37.765625 C8.51673156 39.83268124 8.52129484 41.89973862 8.52539062 43.96679688 C8.53644219 49.04560088 8.5537182 54.1243507 8.57421875 59.203125 C11.5539549 59.28496923 14.53138707 59.34402264 17.51171875 59.390625 C18.34251953 59.41576172 19.17332031 59.44089844 20.02929688 59.46679688 C28.49437109 59.56561097 35.89536004 57.78510197 42.1328125 51.8515625 C46.80573616 46.50746011 47.12367383 41.00212587 46.91796875 34.13671875 C46.10055298 27.1608183 42.79889209 22.88187631 37.55078125 18.4296875 C31.7028171 14.8007137 25.91401961 14.92502019 19.26171875 15.015625 C18.34326172 15.01626953 17.42480469 15.01691406 16.47851562 15.01757812 C12.19568744 14.65839136 12.19568744 14.65839136 8.57421875 16.203125 Z " fill="#B46CD8" transform="translate(143.42578125,205.796875)"/>
<path d="M0 0 C18.48 0 36.96 0 56 0 C56 4.62 56 9.24 56 14 C37.19 14.495 37.19 14.495 18 15 C18 20.94 18 26.88 18 33 C28.89 33 39.78 33 51 33 C51 37.62 51 42.24 51 47 C40.11 47 29.22 47 18 47 C18 55.58 18 64.16 18 73 C12.06 73 6.12 73 0 73 C0 48.91 0 24.82 0 0 Z " fill="#BB70E2" transform="translate(225,206)"/>
<path d="M0 0 C0.33 0 0.66 0 1 0 C1.06058594 1.12019531 1.12117187 2.24039063 1.18359375 3.39453125 C1.26801424 4.86719984 1.35266149 6.33985544 1.4375 7.8125 C1.47681641 8.55048828 1.51613281 9.28847656 1.55664062 10.04882812 C1.74381035 13.23071342 1.98720793 15.96162378 3 19 C2.835 19.61875 2.67 20.2375 2.5 20.875 C1.8793405 23.51280286 2.34952865 25.3981146 3 28 C3.33 27.34 3.66 26.68 4 26 C4.33 26.33 4.66 26.66 5 27 C5.33 26.01 5.66 25.02 6 24 C6.66 24 7.32 24 8 24 C8 25.32 8 26.64 8 28 C19.22 28 30.44 28 42 28 C42.66 26.68 43.32 25.36 44 24 C37.08957706 23.06975076 30.31648661 22.92187265 23.359375 23.125 C21.57270257 23.15616289 19.78489794 23.08549161 18 23 C17.34 22.34 16.68 21.68 16 21 C16.66 20.34 17.32 19.68 18 19 C17.649375 17.96875 17.29875 16.9375 16.9375 15.875 C16.00486377 12.0201036 16.07359079 9.79827774 17 6 C17.33 6 17.66 6 18 6 C18 9.63 18 13.26 18 17 C20.98042511 16.91207291 23.95821312 16.80507424 26.9375 16.6875 C28.18370117 16.65366211 28.18370117 16.65366211 29.45507812 16.61914062 C38.21041579 16.24439855 45.82004619 14.47423732 52 8 C53.26696514 5.6916279 54.11839345 3.49788521 55 1 C57 3 57 3 57.125 6.625 C57.08375 7.73875 57.0425 8.8525 57 10 C58.65 9.34 60.3 8.68 62 8 C62 6.35 62 4.7 62 3 C62.99 3 63.98 3 65 3 C65.99 3.99 65.99 3.99 67 5 C69.60280568 4.67958603 69.60280568 4.67958603 72 4 C73 6 73 6 72.46875 7.8828125 C68.55337799 16.94500416 62.91753861 23.60853333 54 28 C47.08440782 30.67319949 40.76539292 31.41820447 33.3984375 31.29296875 C32.435961 31.28872391 31.4734845 31.28447906 30.48184204 31.28010559 C27.44592796 31.26348275 24.41070912 31.22586256 21.375 31.1875 C19.30079092 31.17243193 17.22657131 31.15874727 15.15234375 31.14648438 C10.10108743 31.11620106 5.05131019 31.05744961 0 31 C0 20.77 0 10.54 0 0 Z " fill="#7938A9" transform="translate(134,248)"/>
<path d="M0 0 C3.375 0.3125 3.375 0.3125 7 1 C7.66 1.99 8.32 2.98 9 4 C9.49757812 4.57234375 9.99515625 5.1446875 10.5078125 5.734375 C15.40572289 11.83901693 15.58860583 17.22000939 15.40625 24.7421875 C15 28 15 28 13 31 C11.68 30.67 10.36 30.34 9 30 C8.67 30.66 8.34 31.32 8 32 C7.34 31.34 6.68 30.68 6 30 C5.34 30.33 4.68 30.66 4 31 C3.505 32.485 3.505 32.485 3 34 C0.4375 35.1875 0.4375 35.1875 -2 36 C-2.99825359 29.7775526 -3.33241293 23.61070951 -3.60546875 17.3203125 C-3.76594142 14.01125538 -3.94680461 11.15958618 -5 8 C-3.68 8.33 -2.36 8.66 -1 9 C-1 8.34 -1 7.68 -1 7 C-1.66 7 -2.32 7 -3 7 C-2.67 5.35 -2.34 3.7 -2 2 C-1.34 2 -0.68 2 0 2 C0 1.34 0 0.68 0 0 Z " fill="#BB66F1" transform="translate(193,222)"/>
<path d="M0 0 C1.62923575 3.25847151 0.20432065 5.92663216 -0.87109375 9.2734375 C-4.33146174 17.63100448 -11.03804993 23.88579287 -19 28 C-25.94489325 30.623494 -32.21869083 31.41847504 -39.6015625 31.29296875 C-40.564039 31.28872391 -41.5265155 31.28447906 -42.51815796 31.28010559 C-45.55407204 31.26348275 -48.58929088 31.22586256 -51.625 31.1875 C-53.69920908 31.17243193 -55.77342869 31.15874727 -57.84765625 31.14648438 C-62.89891257 31.11620106 -67.94868981 31.05744961 -73 31 C-73 21.1 -73 11.2 -73 1 C-72.67 1 -72.34 1 -72 1 C-71.0754481 6.83002562 -70.70034905 12.58385142 -70.48242188 18.47851562 C-70.39985047 22.69573099 -70.39985047 22.69573099 -68 26 C-68.33 26.66 -68.66 27.32 -69 28 C-64.10702988 28.04955872 -59.21420695 28.0857946 -54.32104492 28.10986328 C-52.65760756 28.11990057 -50.99418775 28.13353331 -49.33081055 28.15087891 C-46.93533995 28.17522749 -44.54010332 28.18650588 -42.14453125 28.1953125 C-41.4047554 28.20563507 -40.66497955 28.21595764 -39.90278625 28.22659302 C-35.79265358 28.22747955 -32.7113563 27.76682313 -29 26 C-28.34 25.896875 -27.68 25.79375 -27 25.6875 C-24.68550712 25.06377554 -24.68550712 25.06377554 -22.5625 22.4375 C-20 20 -20 20 -17.3125 19.75 C-16.549375 19.8325 -15.78625 19.915 -15 20 C-14.34 19.67 -13.68 19.34 -13 19 C-13 18.34 -13 17.68 -13 17 C-12.01 16.67 -11.02 16.34 -10 16 C-8.79117904 13.99983534 -8.79117904 13.99983534 -8 12 C-7.34 12 -6.68 12 -6 12 C-5.67 10.68 -5.34 9.36 -5 8 C-4.01 8 -3.02 8 -2 8 C-2.04125 7.05125 -2.0825 6.1025 -2.125 5.125 C-2 2 -2 2 0 0 Z " fill="#5C3381" transform="translate(369,248)"/>
<path d="M0 0 C0.85796677 -0.00570007 1.71593353 -0.01140015 2.59989929 -0.01727295 C4.42669435 -0.02674716 6.25350668 -0.03326648 8.08032227 -0.03710938 C10.83707165 -0.04670224 13.59303886 -0.07765325 16.34960938 -0.109375 C32.25256688 -0.20656401 44.28675703 1.46671928 56.38671875 12.515625 C60.93342028 17.27380101 63.57421875 22.6094461 63.57421875 29.203125 C62.91421875 29.203125 62.25421875 29.203125 61.57421875 29.203125 C61.57421875 27.883125 61.57421875 26.563125 61.57421875 25.203125 C60.08921875 25.698125 60.08921875 25.698125 58.57421875 26.203125 C56.57421875 24.390625 56.57421875 24.390625 54.57421875 22.203125 C54.57421875 21.213125 54.57421875 20.223125 54.57421875 19.203125 C55.23421875 19.203125 55.89421875 19.203125 56.57421875 19.203125 C56.90421875 18.543125 57.23421875 17.883125 57.57421875 17.203125 C56.29546875 17.38875 55.01671875 17.574375 53.69921875 17.765625 C49.82421875 18.328125 49.82421875 18.328125 47.57421875 17.203125 C46.62487673 14.27598712 46.34245402 12.77481132 47.51171875 9.890625 C48.03765625 9.0553125 48.03765625 9.0553125 48.57421875 8.203125 C46.59421875 9.193125 46.59421875 9.193125 44.57421875 10.203125 C44.57421875 9.543125 44.57421875 8.883125 44.57421875 8.203125 C43.58421875 8.203125 42.59421875 8.203125 41.57421875 8.203125 C41.57421875 7.213125 41.57421875 6.223125 41.57421875 5.203125 C39.28716044 4.05959584 37.98157113 4.09978061 35.44921875 4.140625 C33.53109375 4.1715625 33.53109375 4.1715625 31.57421875 4.203125 C31.07921875 3.213125 31.07921875 3.213125 30.57421875 2.203125 C25.91113676 2.17843854 21.24809267 2.16027151 16.58496094 2.14819336 C14.99804014 2.14315912 13.41112398 2.13633131 11.82421875 2.12768555 C9.54556126 2.11558018 7.26696499 2.10988767 4.98828125 2.10546875 C4.2767691 2.10030746 3.56525696 2.09514618 2.83218384 2.08982849 C-0.92171681 2.02997742 -0.92171681 2.02997742 -4.42578125 3.203125 C-5.41578125 2.873125 -6.40578125 2.543125 -7.42578125 2.203125 C-7.75578125 7.483125 -8.08578125 12.763125 -8.42578125 18.203125 C-8.75578125 18.203125 -9.08578125 18.203125 -9.42578125 18.203125 C-9.45262437 15.39056219 -9.47254313 12.57825259 -9.48828125 9.765625 C-9.49666016 8.96318359 -9.50503906 8.16074219 -9.51367188 7.33398438 C-9.52229555 5.29017279 -9.47806275 3.24628598 -9.42578125 1.203125 C-7.34498296 -0.87767329 -2.86935387 0.01465418 0 0 Z " fill="#D48FE4" transform="translate(305.42578125,205.796875)"/>
<path d="M0 0 C2 2 2 2 2.125 5.625 C2.08375 6.73875 2.0425 7.8525 2 9 C3.65 8.34 5.3 7.68 7 7 C7 5.35 7 3.7 7 2 C7.99 2 8.98 2 10 2 C10.66 2.66 11.32 3.32 12 4 C13.32 4 14.64 4 16 4 C15.56157941 8.82262646 14.6182281 10.82034501 11 14 C10.01 15.485 10.01 15.485 9 17 C6.125 16.6875 6.125 16.6875 3 16 C2.34 15.01 1.68 14.02 1 13 C-2.3 13.66 -5.6 14.32 -9 15 C-9 14.01 -9 13.02 -9 12 C-7.51893195 10.81514556 -6.03574653 9.63268704 -4.53515625 8.47265625 C-1.99353003 6.03450591 -1.16027697 3.28745143 0 0 Z " fill="#9149C8" transform="translate(189,249)"/>
<path d="M0 0 C0.33 0 0.66 0 1 0 C1.06058594 1.12019531 1.12117187 2.24039063 1.18359375 3.39453125 C1.26801424 4.86719984 1.35266149 6.33985544 1.4375 7.8125 C1.47681641 8.55048828 1.51613281 9.28847656 1.55664062 10.04882812 C1.74381035 13.23071342 1.98720793 15.96162378 3 19 C2.835 19.61875 2.67 20.2375 2.5 20.875 C1.8793405 23.51280286 2.34952865 25.3981146 3 28 C3.33 27.34 3.66 26.68 4 26 C4.33 26.33 4.66 26.66 5 27 C5.33 26.01 5.66 25.02 6 24 C6.66 24 7.32 24 8 24 C8 25.32 8 26.64 8 28 C12.73224376 28.04963625 17.46433415 28.08583097 22.19677734 28.10986328 C23.80487713 28.11988763 25.41295885 28.13351066 27.02099609 28.15087891 C29.33956376 28.17528488 31.65788929 28.18651886 33.9765625 28.1953125 C35.04567368 28.21079636 35.04567368 28.21079636 36.13638306 28.22659302 C40.48735968 28.22755923 43.9574459 27.59044597 48 26 C49.56148154 25.43467893 51.12388989 24.87190676 52.6875 24.3125 C53.43386719 24.04050781 54.18023437 23.76851563 54.94921875 23.48828125 C57 23 57 23 60 24 C51.95394649 30.14040926 43.32739746 31.46175767 33.3984375 31.29296875 C32.435961 31.28872391 31.4734845 31.28447906 30.48184204 31.28010559 C27.44592796 31.26348275 24.41070912 31.22586256 21.375 31.1875 C19.30079092 31.17243193 17.22657131 31.15874727 15.15234375 31.14648438 C10.10108743 31.11620106 5.05131019 31.05744961 0 31 C0 20.77 0 10.54 0 0 Z " fill="#5C3381" transform="translate(134,248)"/>
<path d="M0 0 C0.7425 0.185625 1.485 0.37125 2.25 0.5625 C2.8275 0.706875 3.405 0.85125 4 1 C4 2.32 4 3.64 4 5 C4.66 5 5.32 5 6 5 C6 5.66 6 6.32 6 7 C7.98 7 9.96 7 12 7 C11.67 7.99 11.34 8.98 11 10 C11.66 10 12.32 10 13 10 C13 11.98 13 13.96 13 16 C12.01 16.495 12.01 16.495 11 17 C10.443125 16.0925 9.88625 15.185 9.3125 14.25 C5.62707981 9.07049054 2.13199463 6.58111969 -4 5 C-7.46324599 4.76782708 -10.9060477 4.8106685 -14.375 4.875 C-15.30183594 4.88402344 -16.22867187 4.89304688 -17.18359375 4.90234375 C-19.45584159 4.92576899 -21.7279553 4.96163527 -24 5 C-24.33 9.62 -24.66 14.24 -25 19 C-25.33 19 -25.66 19 -26 19 C-26 15.04 -26 11.08 -26 7 C-26.66 6.67 -27.32 6.34 -28 6 C-27.01 4.02 -26.02 2.04 -25 0 C-24.26394531 0.09539062 -23.52789062 0.19078125 -22.76953125 0.2890625 C-21.30580078 0.45535156 -21.30580078 0.45535156 -19.8125 0.625 C-18.84957031 0.74101562 -17.88664062 0.85703125 -16.89453125 0.9765625 C-10.55685222 1.02787974 -6.62442912 -1.92322136 0 0 Z " fill="#C78CDA" transform="translate(339,217)"/>
<path d="M0 0 C0.96661363 3.12180401 0.98988909 5.52083795 0.5625 8.75 C0.46066406 9.54921875 0.35882813 10.3484375 0.25390625 11.171875 C0.17011719 11.77515625 0.08632813 12.3784375 0 13 C-1.03125 13.103125 -2.0625 13.20625 -3.125 13.3125 C-6.97164839 13.99496988 -9.61272575 15.10942832 -13 17 C-13.66 17.33 -14.32 17.66 -15 18 C-14.67 18.66 -14.34 19.32 -14 20 C-16.65228812 21.07525194 -19.28368454 22.09456151 -22 23 C-22.33 21.68 -22.66 20.36 -23 19 C-24.65 19 -26.3 19 -28 19 C-28.33 19.66 -28.66 20.32 -29 21 C-32.0625 21.625 -32.0625 21.625 -35 22 C-35.6509259 20.75264433 -36.29551669 19.50198168 -36.9375 18.25 C-37.29714844 17.55390625 -37.65679687 16.8578125 -38.02734375 16.140625 C-39.90221064 12.01441193 -40.10396552 9.4158621 -39 5 C-37 7 -37 7 -36.8046875 9.1640625 C-36.83949219 10.38222656 -36.83949219 10.38222656 -36.875 11.625 C-36.89304687 12.44226563 -36.91109375 13.25953125 -36.9296875 14.1015625 C-36.95289063 14.72804688 -36.97609375 15.35453125 -37 16 C-34.01957489 15.91207291 -31.04178688 15.80507424 -28.0625 15.6875 C-27.23169922 15.66494141 -26.40089844 15.64238281 -25.54492188 15.61914062 C-16.78958421 15.24439855 -9.17995381 13.47423732 -3 7 C-1.73303486 4.6916279 -0.88160655 2.49788521 0 0 Z " fill="#7840A5" transform="translate(351,249)"/>
<path d="M0 0 C1.40564713 0.00666183 1.40564713 0.00666183 2.83969116 0.01345825 C3.90063995 0.01360931 4.96158875 0.01376038 6.0546875 0.01391602 C7.20367523 0.02423859 8.35266296 0.03456116 9.53646851 0.04519653 C10.71002899 0.04802643 11.88358948 0.05085632 13.0927124 0.05377197 C16.85271262 0.06499548 20.61247739 0.09010411 24.37240601 0.11550903 C26.91667341 0.12553602 29.46094453 0.13466236 32.00521851 0.14285278 C38.2527055 0.16494193 44.50001579 0.19948667 50.74740601 0.24050903 C50.74740601 4.86050903 50.74740601 9.48050903 50.74740601 14.24050903 C37.87740601 14.57050903 25.00740601 14.90050903 11.74740601 15.24050903 C11.74740601 15.90050903 11.74740601 16.56050903 11.74740601 17.24050903 C11.08740601 17.24050903 10.42740601 17.24050903 9.74740601 17.24050903 C9.74740601 14.93050903 9.74740601 12.62050903 9.74740601 10.24050903 C12.74740601 10.24050903 12.74740601 10.24050903 14.74740601 11.24050903 C14.74740601 11.90050903 14.74740601 12.56050903 14.74740601 13.24050903 C15.32103882 13.16832153 15.89467163 13.09613403 16.48568726 13.02175903 C25.89834052 11.99336596 35.29355153 12.15233837 44.74740601 12.24050903 C45.07740601 11.58050903 45.40740601 10.92050903 45.74740601 10.24050903 C46.73740601 10.57050903 47.72740601 10.90050903 48.74740601 11.24050903 C48.74740601 8.27050903 48.74740601 5.30050903 48.74740601 2.24050903 C41.80567689 2.21584453 34.86397312 2.197666 27.92221069 2.18557739 C25.55925045 2.18053944 23.19629333 2.17370895 20.83334351 2.16506958 C17.44271066 2.15298049 14.05211892 2.14727544 10.66146851 2.14285278 C9.59997589 2.1376915 8.53848328 2.13253021 7.44482422 2.12721252 C6.46395844 2.12713699 5.48309265 2.12706146 4.47250366 2.12698364 C3.60646515 2.12476303 2.74042664 2.12254242 1.84814453 2.12025452 C-0.3109906 2.10497158 -0.3109906 2.10497158 -2.25259399 3.24050903 C-2.22939087 4.30011841 -2.20618774 5.35972778 -2.18228149 6.45144653 C-2.16352455 7.83946033 -2.14532427 9.22748174 -2.12759399 10.61550903 C-2.11083618 11.31418091 -2.09407837 12.01285278 -2.07681274 12.73269653 C-2.05915133 14.56948389 -2.14956139 16.40652866 -2.25259399 18.24050903 C-2.91259399 18.90050903 -3.57259399 19.56050903 -4.25259399 20.24050903 C-4.30638625 17.28193494 -4.34616492 14.32433182 -4.37759399 11.36550903 C-4.39435181 10.52375122 -4.41110962 9.68199341 -4.42837524 8.81472778 C-4.43482056 8.00906372 -4.44126587 7.20339966 -4.44790649 6.37332153 C-4.46361694 5.25787964 -4.46361694 5.25787964 -4.47964478 4.11990356 C-4.11765454 1.12355861 -2.91404785 0.31113234 0 0 Z " fill="#D19FD6" transform="translate(230.25259399414063,205.75949096679688)"/>
<path d="M0 0 C5.33444247 -0.07492194 10.66856946 -0.12896171 16.00341797 -0.16479492 C17.81304265 -0.17975449 19.6226319 -0.20012957 21.43212891 -0.22631836 C38.1094732 -0.4614053 51.01957595 0.63082571 63.8125 12.3125 C67.28436733 15.94622595 69.71409934 20.12114162 71 25 C70.505 26.485 70.505 26.485 70 28 C68.68 25.69 67.36 23.38 66 21 C65.34 21 64.68 21 64 21 C64 19.68 64 18.36 64 17 C62.35 17 60.7 17 59 17 C58.87625 16.195625 58.7525 15.39125 58.625 14.5625 C58.41875 13.716875 58.2125 12.87125 58 12 C57.34 11.67 56.68 11.34 56 11 C55.505 9.515 55.505 9.515 55 8 C54.01 8 53.02 8 52 8 C52 7.34 52 6.68 52 6 C51.34 6 50.68 6 50 6 C49.67 6.99 49.34 7.98 49 9 C48.505 6.525 48.505 6.525 48 4 C39.27115791 1.75341094 30.86801655 1.72562322 21.91967773 1.79418945 C19.41184542 1.81268925 16.90437848 1.81469701 14.39648438 1.81445312 C12.80468428 1.81936057 11.21288669 1.82518547 9.62109375 1.83203125 C8.49470741 1.83370049 8.49470741 1.83370049 7.3455658 1.83540344 C3.88204142 1.55598224 3.88204142 1.55598224 1 3 C0.63239269 5.32817964 0.29758419 7.6618385 0 10 C-0.33 10 -0.66 10 -1 10 C-1.125 2.25 -1.125 2.25 0 0 Z " fill="#D5A4D7" transform="translate(136,206)"/>
<path d="M0 0 C-0.33 0.33 -0.66 0.66 -1 1 C0.41623216 1.05447047 1.83308191 1.09300508 3.25 1.125 C4.43335938 1.15980469 4.43335938 1.15980469 5.640625 1.1953125 C8.20731941 0.9828378 9.7916067 0.28654105 12 -1 C12 -0.34 12 0.32 12 1 C13.65 1.66 15.3 2.32 17 3 C17.33 2.34 17.66 1.68 18 1 C20.475 1.495 20.475 1.495 23 2 C22.34 3.32 21.68 4.64 21 6 C21.53625 6.2475 22.0725 6.495 22.625 6.75 C25.5823982 8.30652537 28.29724051 10.03435673 31 12 C31 12.66 31 13.32 31 14 C30.01 14 29.02 14 28 14 C28.495 16.97 28.495 16.97 29 20 C27.6953199 18.04297985 26.42257633 16.06417543 25.1875 14.0625 C21.55146972 8.97205761 18.01942561 6.5691087 12 5 C8.57897232 4.72011731 5.18071661 4.72033963 1.75 4.75 C0.38488281 4.73839844 0.38488281 4.73839844 -1.0078125 4.7265625 C-2.31105469 4.73042969 -2.31105469 4.73042969 -3.640625 4.734375 C-4.82446777 4.73775879 -4.82446777 4.73775879 -6.03222656 4.74121094 C-8.23347877 4.82756563 -8.23347877 4.82756563 -10 7 C-10 3 -10 3 -8.8125 1.3125 C-5.94596324 -0.763268 -3.23794813 -1.61897406 0 0 Z " fill="#BE8CCE" transform="translate(161,217)"/>
<path d="M0 0 C0.33 0 0.66 0 1 0 C1 8.25 1 16.5 1 25 C-4.94 25 -10.88 25 -17 25 C-17 17.41 -17 9.82 -17 2 C-16.67 2 -16.34 2 -16 2 C-15.34 6.95 -14.68 11.9 -14 17 C-12.68 17.33 -11.36 17.66 -10 18 C-9.67 19.32 -9.34 20.64 -9 22 C-5.535 21.505 -5.535 21.505 -2 21 C-1.93941406 19.90300781 -1.87882813 18.80601562 -1.81640625 17.67578125 C-1.73195502 16.22134346 -1.64730934 14.76691695 -1.5625 13.3125 C-1.52318359 12.59126953 -1.48386719 11.87003906 -1.44335938 11.12695312 C-1.21814322 7.33292718 -0.87160695 3.71348508 0 0 Z " fill="#703D9A" transform="translate(242,254)"/>
<path d="M0 0 C1 2 1 2 0.36328125 3.98828125 C-1.66510784 8.47486677 -3.66320088 12.30568669 -7 16 C-9.475 15.505 -9.475 15.505 -12 15 C-12.33 15.99 -12.66 16.98 -13 18 C-15.98459129 19.95542188 -17.26414791 20 -21 20 C-21 19.34 -21 18.68 -21 18 C-22.65 18 -24.3 18 -26 18 C-26 16.68 -26 15.36 -26 14 C-26.66 13.67 -27.32 13.34 -28 13 C-23.60748167 10.97944157 -19.84659077 9.59104765 -15 9 C-14.67 9.99 -14.34 10.98 -14 12 C-11.03 12.495 -11.03 12.495 -8 13 C-7.01 11.02 -6.02 9.04 -5 7 C-4.34 7 -3.68 7 -3 7 C-2.01 4.69 -1.02 2.38 0 0 Z " fill="#7D3BB2" transform="translate(206,252)"/>
<path d="M0 0 C1.62559498 3.25118997 0.20480992 5.91126109 -0.84765625 9.2578125 C-3.33068617 15.16658201 -7.55154598 20.56047316 -13 24 C-15.5078125 24.765625 -15.5078125 24.765625 -18.125 25.25 C-18.99382812 25.42015625 -19.86265625 25.5903125 -20.7578125 25.765625 C-23 26 -23 26 -25 25 C-20.68037975 20.06329114 -20.68037975 20.06329114 -17.3125 19.75 C-16.549375 19.8325 -15.78625 19.915 -15 20 C-14.34 19.67 -13.68 19.34 -13 19 C-13 18.34 -13 17.68 -13 17 C-12.01 16.67 -11.02 16.34 -10 16 C-8.79117904 13.99983534 -8.79117904 13.99983534 -8 12 C-7.34 12 -6.68 12 -6 12 C-5.67 10.68 -5.34 9.36 -5 8 C-4.01 8 -3.02 8 -2 8 C-2.04125 7.05125 -2.0825 6.1025 -2.125 5.125 C-2 2 -2 2 0 0 Z " fill="#743BA0" transform="translate(369,248)"/>
<path d="M0 0 C1.29050766 -0.00855011 1.29050766 -0.00855011 2.60708618 -0.01727295 C4.43807744 -0.02674613 6.26908593 -0.03326608 8.10009766 -0.03710938 C10.86783059 -0.04671456 13.63478857 -0.0776722 16.40234375 -0.109375 C25.5032942 -0.16254993 33.90957076 -0.12034466 42.5390625 3.203125 C42.2090625 3.863125 41.8790625 4.523125 41.5390625 5.203125 C40.8790625 4.873125 40.2190625 4.543125 39.5390625 4.203125 C38.16563419 4.1341778 36.78904148 4.11844792 35.4140625 4.140625 C33.4959375 4.1715625 33.4959375 4.1715625 31.5390625 4.203125 C31.0440625 3.213125 31.0440625 3.213125 30.5390625 2.203125 C25.87598051 2.17843854 21.21293642 2.16027151 16.54980469 2.14819336 C14.96288389 2.14315912 13.37596773 2.13633131 11.7890625 2.12768555 C9.51040501 2.11558018 7.23180874 2.10988767 4.953125 2.10546875 C4.24161285 2.10030746 3.53010071 2.09514618 2.79702759 2.08982849 C-0.95687306 2.02997742 -0.95687306 2.02997742 -4.4609375 3.203125 C-5.4509375 2.873125 -6.4409375 2.543125 -7.4609375 2.203125 C-7.7909375 7.483125 -8.1209375 12.763125 -8.4609375 18.203125 C-8.7909375 18.203125 -9.1209375 18.203125 -9.4609375 18.203125 C-9.48778062 15.39056219 -9.50769938 12.57825259 -9.5234375 9.765625 C-9.53181641 8.96318359 -9.54019531 8.16074219 -9.54882812 7.33398438 C-9.5574518 5.29017279 -9.513219 3.24628598 -9.4609375 1.203125 C-7.37611946 -0.88169304 -2.87591523 0.01463252 0 0 Z " fill="#D3A3D4" transform="translate(305.4609375,205.796875)"/>
<path d="M0 0 C0.33 0 0.66 0 1 0 C1 1.98 1 3.96 1 6 C-2.66956597 7.22318866 -6.12321003 7.23116124 -9.94921875 7.31640625 C-11.10814384 7.3475779 -11.10814384 7.3475779 -12.29048157 7.37937927 C-14.7560648 7.44471038 -17.22175361 7.50368315 -19.6875 7.5625 C-21.36003691 7.60570087 -23.03256319 7.64931566 -24.70507812 7.69335938 C-28.8032775 7.8003749 -32.90158296 7.90168857 -37 8 C-37 8.66 -37 9.32 -37 10 C-37.66 10 -38.32 10 -39 10 C-39 7.69 -39 5.38 -39 3 C-36 3 -36 3 -34 4 C-34 4.66 -34 5.32 -34 6 C-33.42636719 5.9278125 -32.85273438 5.855625 -32.26171875 5.78125 C-22.84906549 4.75285693 -13.45385447 4.91182934 -4 5 C-3.67 4.34 -3.34 3.68 -3 3 C-2.01 3.33 -1.02 3.66 0 4 C0 2.68 0 1.36 0 0 Z " fill="#C389D4" transform="translate(279,213)"/>
<path d="M0 0 C16.335 0.495 16.335 0.495 33 1 C33 1.66 33 2.32 33 3 C16.665 3.495 16.665 3.495 0 4 C-0.33 5.65 -0.66 7.3 -1 9 C-1.33 9 -1.66 9 -2 9 C-2 6.69 -2 4.38 -2 2 C-1.34 2 -0.68 2 0 2 C0 1.34 0 0.68 0 0 Z " fill="#965BC3" transform="translate(243,250)"/>
<path d="M0 0 C1.20366211 0.00966797 1.20366211 0.00966797 2.43164062 0.01953125 C3.26501953 0.03628906 4.09839844 0.05304688 4.95703125 0.0703125 C6.22450195 0.08384766 6.22450195 0.08384766 7.51757812 0.09765625 C9.60168368 0.12120547 11.68564342 0.15707603 13.76953125 0.1953125 C14.09953125 1.5153125 14.42953125 2.8353125 14.76953125 4.1953125 C11.47793809 4.25321603 8.18647522 4.28887511 4.89453125 4.3203125 C3.48880859 4.34544922 3.48880859 4.34544922 2.0546875 4.37109375 C1.15878906 4.37753906 0.26289063 4.38398438 -0.66015625 4.390625 C-1.48757324 4.40109863 -2.31499023 4.41157227 -3.16748047 4.42236328 C-5.23046875 4.1953125 -5.23046875 4.1953125 -7.23046875 2.1953125 C-4.12961304 0.12807536 -3.50115194 -0.04966173 0 0 Z " fill="#7938AC" transform="translate(157.23046875,266.8046875)"/>
<path d="M0 0 C0.33 0 0.66 0 1 0 C1 3.63 1 7.26 1 11 C3.97983024 10.88480819 6.95845792 10.75809198 9.9375 10.625 C11.18370117 10.57859375 11.18370117 10.57859375 12.45507812 10.53125 C18.18247369 10.26382297 23.43358471 9.38177413 29 8 C29 8.66 29 9.32 29 10 C22.91947468 13.21314861 17.86174336 13.36875119 11.0625 13.1875 C10.09248047 13.17396484 9.12246094 13.16042969 8.12304688 13.14648438 C5.74810871 13.11138677 3.37435622 13.06222275 1 13 C-0.50961173 8.1542616 -1.21544871 4.98333971 0 0 Z " fill="#7848A3" transform="translate(151,254)"/>
<path d="M0 0 C0.33 0 0.66 0 1 0 C1.66 3.96 2.32 7.92 3 12 C9.93 12.495 9.93 12.495 17 13 C17.33 11.68 17.66 10.36 18 9 C18 10.98 18 12.96 18 15 C12.06 15 6.12 15 0 15 C0 10.05 0 5.1 0 0 Z " fill="#5B367A" transform="translate(225,264)"/>
<path d="M0 0 C2.1875 -0.375 2.1875 -0.375 5 0 C8.98072785 3.88594861 11.21601271 7.74714852 13 13 C12.67 13.99 12.34 14.98 12 16 C10.02 12.535 10.02 12.535 8 9 C7.34 9 6.68 9 6 9 C6 7.68 6 6.36 6 5 C4.35 5 2.7 5 1 5 C0.67 3.35 0.34 1.7 0 0 Z " fill="#BF84DC" transform="translate(194,218)"/>
<path d="M0 0 C-0.33 0.33 -0.66 0.66 -1 1 C0.41623216 1.05447047 1.83308191 1.09300508 3.25 1.125 C4.43335938 1.15980469 4.43335938 1.15980469 5.640625 1.1953125 C8.20731941 0.9828378 9.7916067 0.28654105 12 -1 C12 -0.34 12 0.32 12 1 C12.66 1.33 13.32 1.66 14 2 C12.42763587 3.57236413 10.81376862 3.16385407 8.6328125 3.2109375 C7.74722656 3.23929688 6.86164063 3.26765625 5.94921875 3.296875 C4.07441336 3.34873684 2.19938389 3.3930734 0.32421875 3.4296875 C-0.56394531 3.460625 -1.45210937 3.4915625 -2.3671875 3.5234375 C-3.59091064 3.5531665 -3.59091064 3.5531665 -4.83935547 3.58349609 C-7.43874741 4.08457662 -8.34318931 4.98763332 -10 7 C-10 3 -10 3 -8.8125 1.3125 C-5.94596324 -0.763268 -3.23794813 -1.61897406 0 0 Z " fill="#CD8FDF" transform="translate(161,217)"/>
<path d="M0 0 C0.33 0 0.66 0 1 0 C1.05397335 2.4377963 1.09365616 4.87439685 1.125 7.3125 C1.15013672 8.34793945 1.15013672 8.34793945 1.17578125 9.40429688 C1.21217794 13.17135396 1.14378864 14.78431704 -1 18 C-2.32 17.67 -3.64 17.34 -5 17 C-5.33 17.66 -5.66 18.32 -6 19 C-7.42944945 16.64561267 -8.08661261 15.51967567 -7.625 12.75 C-7.41875 12.1725 -7.2125 11.595 -7 11 C-6.34 11 -5.68 11 -5 11 C-5 12.32 -5 13.64 -5 15 C-4.34 15 -3.68 15 -3 15 C-1.08697693 11.73386305 -0.64325339 9.00554752 -0.375 5.25 C-0.26285156 3.77273437 -0.26285156 3.77273437 -0.1484375 2.265625 C-0.09945312 1.51796875 -0.05046875 0.7703125 0 0 Z " fill="#A854E3" transform="translate(207,235)"/>
<path d="M0 0 C0 0.66 0 1.32 0 2 C1.98 2 3.96 2 6 2 C5.67 2.99 5.34 3.98 5 5 C5.66 5 6.32 5 7 5 C7 6.98 7 8.96 7 11 C6.01 11.495 6.01 11.495 5 12 C4.443125 11.0925 3.88625 10.185 3.3125 9.25 C1.09567955 6.13446855 -0.94881393 4.24824237 -4 2 C-4.66 1.34 -5.32 0.68 -6 0 C-3 -1 -3 -1 0 0 Z " fill="#C181E3" transform="translate(345,222)"/>
<path d="M0 0 C3 1 3 1 4.6875 4.3125 C6 8 6 8 6 12 C5.34 12 4.68 12 4 12 C4 10.68 4 9.36 4 8 C3.01 8.33 2.02 8.66 1 9 C-1 7.1875 -1 7.1875 -3 5 C-3 4.01 -3 3.02 -3 2 C-2.34 2 -1.68 2 -1 2 C-0.67 1.34 -0.34 0.68 0 0 Z " fill="#BE81DE" transform="translate(363,223)"/>
<path d="M0 0 C3.21391447 -0.0892754 5.91489883 0.10432547 9 1 C9.7425 1.185625 10.485 1.37125 11.25 1.5625 C11.8275 1.706875 12.405 1.85125 13 2 C12.67 3.32 12.34 4.64 12 6 C9.69 6 7.38 6 5 6 C5 5.34 5 4.68 5 4 C2.03 3.505 2.03 3.505 -1 3 C-0.67 2.01 -0.34 1.02 0 0 Z " fill="#D088E4" transform="translate(330,216)"/>
<path d="M0 0 C-7.52056752 6.09775745 -16.64525957 6.3067128 -26 6 C-26 5.67 -26 5.34 -26 5 C-24.80375 4.87625 -23.6075 4.7525 -22.375 4.625 C-18.70026707 4.16163613 -15.4881783 3.28137162 -12 2 C-10.44112953 1.42751826 -8.87835232 0.86559945 -7.3125 0.3125 C-6.56613281 0.04050781 -5.81976563 -0.23148437 -5.05078125 -0.51171875 C-3 -1 -3 -1 0 0 Z " fill="#613489" transform="translate(194,272)"/>
<path d="M0 0 C1.32 0.66 2.64 1.32 4 2 C1.28254982 4.71745018 -1.31720161 5.14227955 -5 6.1875 C-6.258125 6.55230469 -7.51625 6.91710937 -8.8125 7.29296875 C-12 8 -12 8 -14 7 C-14.33 7.66 -14.66 8.32 -15 9 C-15.33 8.01 -15.66 7.02 -16 6 C-15.01 6 -14.02 6 -13 6 C-13 5.01 -13 4.02 -13 3 C-11.68 3 -10.36 3 -9 3 C-9 3.66 -9 4.32 -9 5 C-7.68445015 4.5504955 -6.37261642 4.09010284 -5.0625 3.625 C-4.33160156 3.36976563 -3.60070312 3.11453125 -2.84765625 2.8515625 C-0.81317884 2.14728587 -0.81317884 2.14728587 0 0 Z " fill="#70369B" transform="translate(194,267)"/>
<path d="M0 0 C1.37489607 2.74979214 0.65650198 4.01990939 -0.1875 6.9375 C-0.54908203 8.25041016 -0.54908203 8.25041016 -0.91796875 9.58984375 C-2.17703537 12.39433511 -3.37252757 13.45412787 -6 15 C-6.66 15 -7.32 15 -8 15 C-8.33 15.66 -8.66 16.32 -9 17 C-8.67 15.35 -8.34 13.7 -8 12 C-7.34 12 -6.68 12 -6 12 C-5.67 10.68 -5.34 9.36 -5 8 C-4.01 8 -3.02 8 -2 8 C-2.04125 7.05125 -2.0825 6.1025 -2.125 5.125 C-2 2 -2 2 0 0 Z " fill="#9355C2" transform="translate(369,248)"/>
<path d="M0 0 C0.33 0 0.66 0 1 0 C1.9245519 5.83002562 2.29965095 11.58385142 2.51757812 17.47851562 C2.60014953 21.69573099 2.60014953 21.69573099 5 25 C3.68 25 2.36 25 1 25 C0.17463655 19.28094617 -0.12753701 13.7732851 -0.0625 8 C-0.05798828 7.22527344 -0.05347656 6.45054687 -0.04882812 5.65234375 C-0.03719758 3.76819476 -0.01926906 1.88408635 0 0 Z " fill="#8045B0" transform="translate(296,249)"/>
<path d="M0 0 C0.33 1.32 0.66 2.64 1 4 C-8.9 4 -18.8 4 -29 4 C-27 2 -27 2 -24.47802734 1.86474609 C-23.4411377 1.91711426 -22.40424805 1.96948242 -21.3359375 2.0234375 C-19.65371094 2.10078125 -19.65371094 2.10078125 -17.9375 2.1796875 C-16.761875 2.24414062 -15.58625 2.30859375 -14.375 2.375 C-12.59996094 2.46007812 -12.59996094 2.46007812 -10.7890625 2.546875 C-7.85878888 2.68866243 -4.92933228 2.84010333 -2 3 C-2 2.34 -2 1.68 -2 1 C-1.34 0.67 -0.68 0.34 0 0 Z " fill="#A654E3" transform="translate(274,247)"/>
<path d="M0 0 C0.33 0 0.66 0 1 0 C1.06058594 1.12019531 1.12117187 2.24039063 1.18359375 3.39453125 C1.26801424 4.86719984 1.35266149 6.33985544 1.4375 7.8125 C1.47681641 8.55048828 1.51613281 9.28847656 1.55664062 10.04882812 C1.74381035 13.23071342 1.98720793 15.96162378 3 19 C2.625 20.9375 2.625 20.9375 2 23 C1.814375 23.7425 1.62875 24.485 1.4375 25.25 C1.293125 25.8275 1.14875 26.405 1 27 C0 26 0 26 -0.11352539 23.49975586 C-0.10828857 22.41573486 -0.10305176 21.33171387 -0.09765625 20.21484375 C-0.09443359 19.04501953 -0.09121094 17.87519531 -0.08789062 16.66992188 C-0.07951172 15.43822266 -0.07113281 14.20652344 -0.0625 12.9375 C-0.05798828 11.70193359 -0.05347656 10.46636719 -0.04882812 9.19335938 C-0.03699608 6.12885883 -0.02051173 3.06445279 0 0 Z " fill="#7946A7" transform="translate(134,248)"/>
<path d="M0 0 C0.96661363 3.12180401 0.98988909 5.52083795 0.5625 8.75 C0.46066406 9.54921875 0.35882813 10.3484375 0.25390625 11.171875 C0.12822266 12.07679688 0.12822266 12.07679688 0 13 C-0.99 13.33 -1.98 13.66 -3 14 C-3.66 13.01 -4.32 12.02 -5 11 C-4.1015625 8.30078125 -4.1015625 8.30078125 -2.625 5.3125 C-2.14289063 4.31863281 -1.66078125 3.32476562 -1.1640625 2.30078125 C-0.77992188 1.54152344 -0.39578125 0.78226563 0 0 Z " fill="#8C4DBD" transform="translate(351,249)"/>
<path d="M0 0 C2.94956528 1.36944102 5.52468811 2.87830409 8 5 C8 5.66 8 6.32 8 7 C7.01 7 6.02 7 5 7 C5.33 8.98 5.66 10.96 6 13 C5.34 12.01 4.68 11.02 4 10 C3.29875 9.030625 2.5975 8.06125 1.875 7.0625 C0 4 0 4 0 0 Z " fill="#C27CE3" transform="translate(184,224)"/>
<path d="M0 0 C1.60875 0.5878125 1.60875 0.5878125 3.25 1.1875 C0.9370518 3.5004482 -0.22904875 3.68330975 -3.375 4.3125 C-4.19226563 4.48007812 -5.00953125 4.64765625 -5.8515625 4.8203125 C-6.79128906 5.00207031 -6.79128906 5.00207031 -7.75 5.1875 C-7.75 2.1875 -7.75 2.1875 -6.1875 0.375 C-3.75 -0.8125 -3.75 -0.8125 0 0 Z " fill="#8647BB" transform="translate(187.75,258.8125)"/>
<path d="M0 0 C1 2 1 2 0.3984375 3.98828125 C-1.79445026 8.96831261 -3.86676814 12.44082812 -8 16 C-7.46440184 12.14369327 -6.48261705 9.97914046 -4 7 C-2.45428722 4.68143083 -1.20381448 2.49361571 0 0 Z " fill="#7A49B0" transform="translate(206,252)"/>
<path d="M0 0 C4.59621922 1.4870121 7.46972347 3.79812128 11 7 C11 7.33 11 7.66 11 8 C9.02 8 7.04 8 5 8 C4.67 6.68 4.34 5.36 4 4 C3.01 4 2.02 4 1 4 C0.67 2.68 0.34 1.36 0 0 Z " fill="#C993D4" transform="translate(187,210)"/>
<path d="M0 0 C2.97 1.65 5.94 3.3 9 5 C6.6921509 6.15392455 4.52769669 6.53437166 2 7 C2 6.34 2 5.68 2 5 C1.01 5 0.02 5 -1 5 C-0.67 3.35 -0.34 1.7 0 0 Z " fill="#D497E1" transform="translate(348,209)"/>
<path d="M0 0 C-5.77874846 3.25711277 -10.37822074 4.69343615 -17 5 C-14.15819378 3.10546252 -11.68435185 1.99807186 -8.5 0.8125 C-7.5409375 0.44769531 -6.581875 0.08289063 -5.59375 -0.29296875 C-3 -1 -3 -1 0 0 Z " fill="#5E3982" transform="translate(355,273)"/>
<path d="M0 0 C1.32 0.66 2.64 1.32 4 2 C4 3.32 4 4.64 4 6 C3.01 6 2.02 6 1 6 C1 6.66 1 7.32 1 8 C0.34 8 -0.32 8 -1 8 C-1.04241723 5.66705225 -1.04092937 3.33297433 -1 1 C-0.67 0.67 -0.34 0.34 0 0 Z " fill="#D58EE7" transform="translate(241,215)"/>
<path d="M0 0 C0 0.66 0 1.32 0 2 C-4.53701494 3.45184478 -8.18061476 4.23509196 -13 4 C-11.875 2.5 -11.875 2.5 -10 1 C-6.9375 0.875 -6.9375 0.875 -4 1 C-2 0 -2 0 0 0 Z " fill="#652F95" transform="translate(348,273)"/>
<path d="M0 0 C0.33 0 0.66 0 1 0 C1.0809723 2.43816585 1.14046972 4.87364384 1.1875 7.3125 C1.22520508 8.34793945 1.22520508 8.34793945 1.26367188 9.40429688 C1.29296875 11.42578125 1.29296875 11.42578125 1 15 C0.01 15.99 -0.98 16.98 -2 18 C-1.34 12.06 -0.68 6.12 0 0 Z " fill="#A065D2" transform="translate(207,235)"/>
<path d="M0 0 C0.66 0 1.32 0 2 0 C2 0.66 2 1.32 2 2 C3.32 2.66 4.64 3.32 6 4 C5.67 4.99 5.34 5.98 5 7 C3.0625 6.3125 3.0625 6.3125 1 5 C0.25 2.375 0.25 2.375 0 0 Z " fill="#CC77F7" transform="translate(360,225)"/>
<path d="M0 0 C0.99 0.33 1.98 0.66 3 1 C2.67 2.98 2.34 4.96 2 7 C1.01 7 0.02 7 -1 7 C-0.67 4.69 -0.34 2.38 0 0 Z " fill="#994BD4" transform="translate(202,252)"/>
<path d="M0 0 C2 2 2 2 2.1953125 4.3828125 C2.17210937 5.28773438 2.14890625 6.19265625 2.125 7.125 C2.10695313 8.03507812 2.08890625 8.94515625 2.0703125 9.8828125 C2.03550781 10.93082031 2.03550781 10.93082031 2 12 C-0.29632557 7.56043724 -1.20238143 4.94312365 0 0 Z " fill="#8C4FBE" transform="translate(312,254)"/>
<path d="M0 0 C0.33 0.99 0.66 1.98 1 3 C-2.75 6 -2.75 6 -5 6 C-5.33 6.66 -5.66 7.32 -6 8 C-5.8125 5.6875 -5.8125 5.6875 -5 3 C-2.4375 1.1875 -2.4375 1.1875 0 0 Z " fill="#8449B8" transform="translate(366,257)"/>
<path d="M0 0 C1.32 0 2.64 0 4 0 C4.33 1.32 4.66 2.64 5 4 C3.68 4.33 2.36 4.66 1 5 C0.67 3.35 0.34 1.7 0 0 Z " fill="#D486EF" transform="translate(194,218)"/>
<path d="M0 0 C1.65 0.33 3.3 0.66 5 1 C4.34 2.32 3.68 3.64 3 5 C1.68 4.34 0.36 3.68 -1 3 C-0.67 2.01 -0.34 1.02 0 0 Z " fill="#D388EA" transform="translate(179,218)"/>
<path d="M0 0 C0.33 0 0.66 0 1 0 C1 1.98 1 3.96 1 6 C-1.60582371 6.93065133 -2.64198224 7.14917407 -5.25 6.0625 C-5.8275 5.711875 -6.405 5.36125 -7 5 C-6.01 5 -5.02 5 -4 5 C-3.67 4.34 -3.34 3.68 -3 3 C-2.01 3.33 -1.02 3.66 0 4 C0 2.68 0 1.36 0 0 Z " fill="#D290E4" transform="translate(279,213)"/>
<path d="M0 0 C0.33 0.99 0.66 1.98 1 3 C1.66 3 2.32 3 3 3 C3 3.66 3 4.32 3 5 C3.99 5 4.98 5 6 5 C5.67 5.66 5.34 6.32 5 7 C3.35 6.67 1.7 6.34 0 6 C-0.38218767 4.34385343 -0.71395102 2.67542976 -1 1 C-0.67 0.67 -0.34 0.34 0 0 Z " fill="#CF86EA" transform="translate(353,217)"/>
<path d="M0 0 C1.65 0 3.3 0 5 0 C5 0.99 5 1.98 5 3 C2.50907189 4.24546405 1.58919267 3.7767578 -1 3 C-0.67 2.01 -0.34 1.02 0 0 Z " fill="#D78DEC" transform="translate(330,216)"/>
<path d="M0 0 C0.66 0 1.32 0 2 0 C2 0.66 2 1.32 2 2 C2.66 2.33 3.32 2.66 4 3 C3 4 3 4 -0.0625 4.0625 C-1.5165625 4.0315625 -1.5165625 4.0315625 -3 4 C-2 2 -2 2 0 0 Z " fill="#D38CE7" transform="translate(171,216)"/>
</svg>
